<svg xmlns="http://www.w3.org/2000/svg" viewBox="0 0 296 88" width="296" height="88">
  <title>BLUE Mosaic Text</title>
  <defs>
    <clipPath id="blue-text-clip">
      <text x="4" y="70" font-family="Montserrat, Arial, Helvetica, sans-serif" font-weight="bold" font-size="90" letter-spacing="0">BLUE</text>
    </clipPath>
  </defs>
  <g id="blue-mosaic" clip-path="url(#blue-text-clip)">
    <rect x="4" y="4" width="16" height="16" fill="#99D1E9"/>
    <rect x="20" y="4" width="16" height="16" fill="#99D1E9"/>
    <rect x="36" y="4" width="16" height="16" fill="#97D0E9"/>
    <rect x="52" y="4" width="16" height="16" fill="#98D0E7"/>
    <rect x="68" y="4" width="16" height="16" fill="#AADAEB"/>
    <rect x="84" y="4" width="16" height="16" fill="#C0E3F0"/>
    <rect x="100" y="4" width="16" height="16" fill="#C0E3F0"/>
    <rect x="116" y="4" width="16" height="16" fill="#ADDFEA"/>
    <rect x="132" y="4" width="16" height="16" fill="#9AD4DD"/>
    <rect x="148" y="4" width="16" height="16" fill="#99D2DC"/>
    <rect x="164" y="4" width="16" height="16" fill="#9BD5DD"/>
    <rect x="180" y="4" width="16" height="16" fill="#7FC5D7"/>
    <rect x="196" y="4" width="16" height="16" fill="#7FC5D7"/>
    <rect x="212" y="4" width="16" height="16" fill="#81C3D5"/>
    <rect x="228" y="4" width="16" height="16" fill="#75B6D6"/>
    <rect x="244" y="4" width="16" height="16" fill="#63A0CE"/>
    <rect x="260" y="4" width="16" height="16" fill="#62A1CD"/>
    <rect x="276" y="4" width="16" height="16" fill="#62A1CD"/>
    <rect x="4" y="20" width="16" height="16" fill="#5EAEDC"/>
    <rect x="20" y="20" width="16" height="16" fill="#5EAEDC"/>
    <rect x="36" y="20" width="16" height="16" fill="#60B0DE"/>
    <rect x="52" y="20" width="16" height="16" fill="#5FAFDE"/>
    <rect x="68" y="20" width="16" height="16" fill="#6EB9D6"/>
    <rect x="84" y="20" width="16" height="16" fill="#88C9D8"/>
    <rect x="100" y="20" width="16" height="16" fill="#88C9D8"/>
    <rect x="116" y="20" width="16" height="16" fill="#75C0D6"/>
    <rect x="132" y="20" width="16" height="16" fill="#55BDD5"/>
    <rect x="148" y="20" width="16" height="16" fill="#54BDD3"/>
    <rect x="164" y="20" width="16" height="16" fill="#6CC2D7"/>
    <rect x="180" y="20" width="16" height="16" fill="#47AFD2"/>
    <rect x="196" y="20" width="16" height="16" fill="#47AFD2"/>
    <rect x="212" y="20" width="16" height="16" fill="#45ACCE"/>
    <rect x="228" y="20" width="16" height="16" fill="#2E97C3"/>
    <rect x="244" y="20" width="16" height="16" fill="#2178B2"/>
    <rect x="260" y="20" width="16" height="16" fill="#207AB1"/>
    <rect x="276" y="20" width="16" height="16" fill="#227BB2"/>
    <rect x="4" y="36" width="16" height="16" fill="#467DB6"/>
    <rect x="20" y="36" width="16" height="16" fill="#467DB6"/>
    <rect x="36" y="36" width="16" height="16" fill="#477DB4"/>
    <rect x="52" y="36" width="16" height="16" fill="#477CB5"/>
    <rect x="68" y="36" width="16" height="16" fill="#4F8EC3"/>
    <rect x="84" y="36" width="16" height="16" fill="#59A3C8"/>
    <rect x="100" y="36" width="16" height="16" fill="#59A3C8"/>
    <rect x="116" y="36" width="16" height="16" fill="#4B95C6"/>
    <rect x="132" y="36" width="16" height="16" fill="#3781BB"/>
    <rect x="148" y="36" width="16" height="16" fill="#3585BE"/>
    <rect x="164" y="36" width="16" height="16" fill="#3992C0"/>
    <rect x="180" y="36" width="16" height="16" fill="#3381BA"/>
    <rect x="196" y="36" width="16" height="16" fill="#3381BA"/>
    <rect x="212" y="36" width="16" height="16" fill="#307FB9"/>
    <rect x="228" y="36" width="16" height="16" fill="#295FA2"/>
    <rect x="244" y="36" width="16" height="16" fill="#274B9A"/>
    <rect x="260" y="36" width="16" height="16" fill="#254897"/>
    <rect x="276" y="36" width="16" height="16" fill="#264998"/>
    <rect x="4" y="52" width="16" height="16" fill="#313C89"/>
    <rect x="20" y="52" width="16" height="16" fill="#313C89"/>
    <rect x="36" y="52" width="16" height="16" fill="#313D8D"/>
    <rect x="52" y="52" width="16" height="16" fill="#2E3D8B"/>
    <rect x="68" y="52" width="16" height="16" fill="#3A589F"/>
    <rect x="84" y="52" width="16" height="16" fill="#4171B0"/>
    <rect x="100" y="52" width="16" height="16" fill="#4171B0"/>
    <rect x="116" y="52" width="16" height="16" fill="#2B599C"/>
    <rect x="132" y="52" width="16" height="16" fill="#2A4781"/>
    <rect x="148" y="52" width="16" height="16" fill="#294781"/>
    <rect x="164" y="52" width="16" height="16" fill="#28528E"/>
    <rect x="180" y="52" width="16" height="16" fill="#2A4D8A"/>
    <rect x="196" y="52" width="16" height="16" fill="#2A4D8A"/>
    <rect x="212" y="52" width="16" height="16" fill="#27437D"/>
    <rect x="228" y="52" width="16" height="16" fill="#1F356B"/>
    <rect x="244" y="52" width="16" height="16" fill="#1B2050"/>
    <rect x="260" y="52" width="16" height="16" fill="#1C2151"/>
    <rect x="276" y="52" width="16" height="16" fill="#1B2353"/>
    <rect x="4" y="68" width="16" height="16" fill="#2F3174"/>
    <rect x="20" y="68" width="16" height="16" fill="#2F3174"/>
    <rect x="36" y="68" width="16" height="16" fill="#2E3176"/>
    <rect x="52" y="68" width="16" height="16" fill="#303078"/>
    <rect x="68" y="68" width="16" height="16" fill="#3B428B"/>
    <rect x="84" y="68" width="16" height="16" fill="#41589F"/>
    <rect x="100" y="68" width="16" height="16" fill="#41589F"/>
    <rect x="116" y="68" width="16" height="16" fill="#31458A"/>
    <rect x="132" y="68" width="16" height="16" fill="#26386A"/>
    <rect x="148" y="68" width="16" height="16" fill="#283A70"/>
    <rect x="164" y="68" width="16" height="16" fill="#2E437B"/>
    <rect x="180" y="68" width="16" height="16" fill="#2B4071"/>
    <rect x="196" y="68" width="16" height="16" fill="#2B4071"/>
    <rect x="212" y="68" width="16" height="16" fill="#24346A"/>
    <rect x="228" y="68" width="16" height="16" fill="#1C245A"/>
    <rect x="244" y="68" width="16" height="16" fill="#141D4A"/>
    <rect x="260" y="68" width="16" height="16" fill="#151D4C"/>
    <rect x="276" y="68" width="16" height="16" fill="#161C49"/>
  </g>
</svg>