<svg xmlns="http://www.w3.org/2000/svg" viewBox="0 0 800 70" width="800" height="70">
  <title>Stay Blue, Stay Curious</title>
  <defs>
    <clipPath id="text-shape">
      <text x="0" y="46" font-family="Montserrat, Arial, Helvetica, sans-serif" font-size="48" letter-spacing="0"><tspan font-weight="600" fill="#FFFFFF">STAY </tspan><tspan font-weight="800" fill="#FFFFFF">BLUE</tspan><tspan font-weight="600" fill="#FFFFFF">, STAY CURIOUS</tspan></text>
    </clipPath>
    <clipPath id="blue-region">
      <rect x="130" y="0" width="141" height="70"/>
    </clipPath>
  </defs>
  <text x="0" y="46" font-family="Montserrat, Arial, Helvetica, sans-serif" font-size="48" letter-spacing="0"><tspan font-weight="600" fill="#FFFFFF">STAY </tspan><tspan font-weight="800" fill="#FFFFFF">BLUE</tspan><tspan font-weight="600" fill="#FFFFFF">, STAY CURIOUS</tspan></text>
  <g clip-path="url(#text-shape)">
    <g clip-path="url(#blue-region)">
      <rect x="120" y="0" width="10" height="10" fill="#99D1E9"/>
      <rect x="130" y="0" width="10" height="10" fill="#99D1E9"/>
      <rect x="140" y="0" width="10" height="10" fill="#97D0E9"/>
      <rect x="150" y="0" width="10" height="10" fill="#98D0E7"/>
      <rect x="160" y="0" width="10" height="10" fill="#AADAEB"/>
      <rect x="170" y="0" width="10" height="10" fill="#C0E3F0"/>
      <rect x="180" y="0" width="10" height="10" fill="#C0E3F0"/>
      <rect x="190" y="0" width="10" height="10" fill="#ADDFEA"/>
      <rect x="200" y="0" width="10" height="10" fill="#9AD4DD"/>
      <rect x="210" y="0" width="10" height="10" fill="#99D2DC"/>
      <rect x="220" y="0" width="10" height="10" fill="#9BD5DD"/>
      <rect x="230" y="0" width="10" height="10" fill="#7FC5D7"/>
      <rect x="240" y="0" width="10" height="10" fill="#7FC5D7"/>
      <rect x="250" y="0" width="10" height="10" fill="#81C3D5"/>
      <rect x="260" y="0" width="10" height="10" fill="#75B6D6"/>
      <rect x="270" y="0" width="10" height="10" fill="#63A0CE"/>
      <rect x="280" y="0" width="10" height="10" fill="#62A1CD"/>
      <rect x="290" y="0" width="10" height="10" fill="#62A1CD"/>
      <rect x="120" y="10" width="10" height="10" fill="#5EAEDC"/>
      <rect x="130" y="10" width="10" height="10" fill="#5EAEDC"/>
      <rect x="140" y="10" width="10" height="10" fill="#60B0DE"/>
      <rect x="150" y="10" width="10" height="10" fill="#5FAFDE"/>
      <rect x="160" y="10" width="10" height="10" fill="#6EB9D6"/>
      <rect x="170" y="10" width="10" height="10" fill="#88C9D8"/>
      <rect x="180" y="10" width="10" height="10" fill="#88C9D8"/>
      <rect x="190" y="10" width="10" height="10" fill="#75C0D6"/>
      <rect x="200" y="10" width="10" height="10" fill="#55BDD5"/>
      <rect x="210" y="10" width="10" height="10" fill="#54BDD3"/>
      <rect x="220" y="10" width="10" height="10" fill="#6CC2D7"/>
      <rect x="230" y="10" width="10" height="10" fill="#47AFD2"/>
      <rect x="240" y="10" width="10" height="10" fill="#47AFD2"/>
      <rect x="250" y="10" width="10" height="10" fill="#45ACCE"/>
      <rect x="260" y="10" width="10" height="10" fill="#2E97C3"/>
      <rect x="270" y="10" width="10" height="10" fill="#2178B2"/>
      <rect x="280" y="10" width="10" height="10" fill="#207AB1"/>
      <rect x="290" y="10" width="10" height="10" fill="#227BB2"/>
      <rect x="120" y="20" width="10" height="10" fill="#467DB6"/>
      <rect x="130" y="20" width="10" height="10" fill="#467DB6"/>
      <rect x="140" y="20" width="10" height="10" fill="#477DB4"/>
      <rect x="150" y="20" width="10" height="10" fill="#477CB5"/>
      <rect x="160" y="20" width="10" height="10" fill="#4F8EC3"/>
      <rect x="170" y="20" width="10" height="10" fill="#59A3C8"/>
      <rect x="180" y="20" width="10" height="10" fill="#59A3C8"/>
      <rect x="190" y="20" width="10" height="10" fill="#4B95C6"/>
      <rect x="200" y="20" width="10" height="10" fill="#3781BB"/>
      <rect x="210" y="20" width="10" height="10" fill="#3585BE"/>
      <rect x="220" y="20" width="10" height="10" fill="#3992C0"/>
      <rect x="230" y="20" width="10" height="10" fill="#3381BA"/>
      <rect x="240" y="20" width="10" height="10" fill="#3381BA"/>
      <rect x="250" y="20" width="10" height="10" fill="#307FB9"/>
      <rect x="260" y="20" width="10" height="10" fill="#295FA2"/>
      <rect x="270" y="20" width="10" height="10" fill="#274B9A"/>
      <rect x="280" y="20" width="10" height="10" fill="#254897"/>
      <rect x="290" y="20" width="10" height="10" fill="#264998"/>
      <rect x="120" y="30" width="10" height="10" fill="#313C89"/>
      <rect x="130" y="30" width="10" height="10" fill="#313C89"/>
      <rect x="140" y="30" width="10" height="10" fill="#313D8D"/>
      <rect x="150" y="30" width="10" height="10" fill="#2E3D8B"/>
      <rect x="160" y="30" width="10" height="10" fill="#3A589F"/>
      <rect x="170" y="30" width="10" height="10" fill="#4171B0"/>
      <rect x="180" y="30" width="10" height="10" fill="#4171B0"/>
      <rect x="190" y="30" width="10" height="10" fill="#2B599C"/>
      <rect x="200" y="30" width="10" height="10" fill="#2A4781"/>
      <rect x="210" y="30" width="10" height="10" fill="#294781"/>
      <rect x="220" y="30" width="10" height="10" fill="#28528E"/>
      <rect x="230" y="30" width="10" height="10" fill="#2A4D8A"/>
      <rect x="240" y="30" width="10" height="10" fill="#2A4D8A"/>
      <rect x="250" y="30" width="10" height="10" fill="#27437D"/>
      <rect x="260" y="30" width="10" height="10" fill="#1F356B"/>
      <rect x="270" y="30" width="10" height="10" fill="#1B2050"/>
      <rect x="280" y="30" width="10" height="10" fill="#1C2151"/>
      <rect x="290" y="30" width="10" height="10" fill="#1B2353"/>
      <rect x="120" y="40" width="10" height="10" fill="#2F3174"/>
      <rect x="130" y="40" width="10" height="10" fill="#2F3174"/>
      <rect x="140" y="40" width="10" height="10" fill="#2E3176"/>
      <rect x="150" y="40" width="10" height="10" fill="#303078"/>
      <rect x="160" y="40" width="10" height="10" fill="#3B428B"/>
      <rect x="170" y="40" width="10" height="10" fill="#41589F"/>
      <rect x="180" y="40" width="10" height="10" fill="#41589F"/>
      <rect x="190" y="40" width="10" height="10" fill="#31458A"/>
      <rect x="200" y="40" width="10" height="10" fill="#26386A"/>
      <rect x="210" y="40" width="10" height="10" fill="#283A70"/>
      <rect x="220" y="40" width="10" height="10" fill="#2E437B"/>
      <rect x="230" y="40" width="10" height="10" fill="#2B4071"/>
      <rect x="240" y="40" width="10" height="10" fill="#2B4071"/>
      <rect x="250" y="40" width="10" height="10" fill="#24346A"/>
      <rect x="260" y="40" width="10" height="10" fill="#1C245A"/>
      <rect x="270" y="40" width="10" height="10" fill="#141D4A"/>
      <rect x="280" y="40" width="10" height="10" fill="#151D4C"/>
      <rect x="290" y="40" width="10" height="10" fill="#161C49"/>
      <rect x="120" y="50" width="10" height="10" fill="#2F3174"/>
      <rect x="130" y="50" width="10" height="10" fill="#2F3174"/>
      <rect x="140" y="50" width="10" height="10" fill="#2E3176"/>
      <rect x="150" y="50" width="10" height="10" fill="#303078"/>
      <rect x="160" y="50" width="10" height="10" fill="#3B428B"/>
      <rect x="170" y="50" width="10" height="10" fill="#41589F"/>
      <rect x="180" y="50" width="10" height="10" fill="#41589F"/>
      <rect x="190" y="50" width="10" height="10" fill="#31458A"/>
      <rect x="200" y="50" width="10" height="10" fill="#26386A"/>
      <rect x="210" y="50" width="10" height="10" fill="#283A70"/>
      <rect x="220" y="50" width="10" height="10" fill="#2E437B"/>
      <rect x="230" y="50" width="10" height="10" fill="#2B4071"/>
      <rect x="240" y="50" width="10" height="10" fill="#2B4071"/>
      <rect x="250" y="50" width="10" height="10" fill="#24346A"/>
      <rect x="260" y="50" width="10" height="10" fill="#1C245A"/>
      <rect x="270" y="50" width="10" height="10" fill="#141D4A"/>
      <rect x="280" y="50" width="10" height="10" fill="#151D4C"/>
      <rect x="290" y="50" width="10" height="10" fill="#161C49"/>
      <rect x="120" y="60" width="10" height="10" fill="#2F3174"/>
      <rect x="130" y="60" width="10" height="10" fill="#2F3174"/>
      <rect x="140" y="60" width="10" height="10" fill="#2E3176"/>
      <rect x="150" y="60" width="10" height="10" fill="#303078"/>
      <rect x="160" y="60" width="10" height="10" fill="#3B428B"/>
      <rect x="170" y="60" width="10" height="10" fill="#41589F"/>
      <rect x="180" y="60" width="10" height="10" fill="#41589F"/>
      <rect x="190" y="60" width="10" height="10" fill="#31458A"/>
      <rect x="200" y="60" width="10" height="10" fill="#26386A"/>
      <rect x="210" y="60" width="10" height="10" fill="#283A70"/>
      <rect x="220" y="60" width="10" height="10" fill="#2E437B"/>
      <rect x="230" y="60" width="10" height="10" fill="#2B4071"/>
      <rect x="240" y="60" width="10" height="10" fill="#2B4071"/>
      <rect x="250" y="60" width="10" height="10" fill="#24346A"/>
      <rect x="260" y="60" width="10" height="10" fill="#1C245A"/>
      <rect x="270" y="60" width="10" height="10" fill="#141D4A"/>
      <rect x="280" y="60" width="10" height="10" fill="#151D4C"/>
      <rect x="290" y="60" width="10" height="10" fill="#161C49"/>
    </g>
  </g>
</svg>